<?xml version="1.0" standalone="no"?>
<!DOCTYPE svg PUBLIC "-//W3C//DTD SVG 20010904//EN"
 "http://www.w3.org/TR/2001/REC-SVG-20010904/DTD/svg10.dtd">
<svg version="1.0" xmlns="http://www.w3.org/2000/svg"
 width="500.000000pt" height="500.000000pt" viewBox="0 0 500.000000 500.000000"
 preserveAspectRatio="xMidYMid meet">

<g transform="translate(0.000000,500.000000) scale(0.100000,-0.100000)"
fill="#000000" stroke="none">
<path d="M2595 4615 c-82 -18 -258 -56 -390 -84 -132 -29 -250 -59 -262 -67
-27 -17 -30 -27 -46 -174 l-12 -115 -310 -67 c-170 -37 -320 -72 -332 -77 -38
-18 -51 -52 -62 -174 -10 -101 -9 -121 4 -147 17 -33 43 -50 77 -50 13 0 232
45 488 100 256 56 800 173 1210 261 410 88 758 164 773 171 72 28 73 82 5 202
-61 107 -96 146 -132 146 -14 0 -162 -29 -328 -65 -166 -36 -307 -64 -313 -61
-6 2 -36 46 -65 97 -65 113 -90 139 -127 138 -15 0 -95 -16 -178 -34z m172
-190 l31 -54 -26 -6 c-15 -3 -182 -39 -372 -80 -189 -40 -346 -72 -348 -70 -2
1 0 30 4 63 l6 60 147 31 c80 18 227 49 326 71 99 21 185 39 190 39 6 0 24
-24 42 -54z"/>
<path d="M1385 3616 c-17 -7 -43 -28 -58 -45 -22 -27 -27 -42 -27 -87 0 -30
20 -314 45 -632 24 -317 67 -872 95 -1232 28 -360 55 -670 61 -688 6 -18 27
-45 47 -60 l35 -27 896 -3 c493 -2 910 0 928 3 39 7 91 49 105 84 5 14 21 175
34 356 13 182 51 708 84 1170 34 462 64 894 67 960 l6 120 -29 34 c-54 64 12
61 -1176 61 -878 -1 -1089 -3 -1113 -14z m406 -392 c9 -11 25 -189 56 -597 23
-320 56 -762 72 -982 20 -266 26 -405 20 -417 -13 -24 -110 -26 -129 -3 -15
18 -12 -10 -55 570 -19 259 -50 681 -69 939 -24 323 -32 475 -25 487 13 25
110 27 130 3z m519 -6 c14 -37 52 -1978 39 -1995 -15 -18 -113 -18 -128 1 -12
14 -18 196 -45 1406 -8 338 -9 582 -4 593 7 13 22 17 69 17 52 0 61 -3 69 -22z
m550 7 c10 -12 10 -70 1 -277 -6 -145 -18 -441 -26 -658 -39 -1003 -42 -1049
-55 -1065 -17 -21 -113 -21 -130 0 -11 13 -10 98 4 453 9 240 26 680 37 977
11 297 24 550 29 563 8 19 17 22 69 22 40 0 63 -5 71 -15z m490 0 c10 -12 -2
-203 -66 -993 -43 -537 -81 -987 -86 -999 -7 -20 -14 -23 -67 -23 -40 0 -62 5
-71 15 -15 18 -15 17 35 640 19 242 51 640 70 885 19 245 40 455 45 468 8 19
17 22 69 22 40 0 63 -5 71 -15z"/>
</g>
</svg>
